<?xml version="1.0" standalone="no"?>
<!DOCTYPE svg PUBLIC "-//W3C//DTD SVG 20010904//EN"
 "http://www.w3.org/TR/2001/REC-SVG-20010904/DTD/svg10.dtd">
<svg version="1.0" xmlns="http://www.w3.org/2000/svg"
 width="200.000000pt" height="200.000000pt" viewBox="0 0 200.000000 200.000000"
 preserveAspectRatio="xMidYMid meet">

<g transform="translate(0.000000,200.000000) scale(0.100000,-0.100000)"
fill="#000000" stroke="none">
<path d="M830 1474 l-75 -76 100 4 c87 3 107 7 145 30 53 31 100 84 100 112 0
3 -44 6 -98 6 l-98 0 -74 -76z"/>
<path d="M602 1247 c-39 -40 -72 -76 -72 -80 0 -4 132 -6 293 -5 287 3 293 4
330 27 21 13 47 41 57 62 38 73 52 69 -258 69 l-278 0 -72 -73z"/>
<path d="M360 995 l-74 -75 639 0 640 0 68 69 c37 37 67 71 67 75 0 3 -285 6
-633 6 l-633 0 -74 -75z"/>
<path d="M893 830 c-23 -5 -53 -16 -67 -25 -28 -19 -71 -99 -61 -115 4 -6 103
-10 278 -10 l273 0 72 73 c39 40 72 75 72 79 0 9 -519 7 -567 -2z"/>
<path d="M1030 587 c-35 -11 -140 -106 -140 -126 0 -7 35 -11 98 -11 108 1 98
-4 192 93 l54 57 -84 -1 c-47 -1 -101 -6 -120 -12z"/>
</g>
</svg>
